<svg width="181" height="371" viewBox="0 0 181 371" fill="none" xmlns="http://www.w3.org/2000/svg">
<rect x="54" y="37" width="119" height="297" fill="black" fill-opacity="0.2"/>
<path opacity="0.4" d="M173 334H54V351C54 362.046 62.9543 371 74 371H173V334Z" fill="black"/>
<path opacity="0.4" d="M173 37H54V20C54 8.95431 62.9543 0 74 0H173V37Z" fill="black"/>
<path d="M97.416 10H99.624V26.08H103.224V28H93.816V26.08H97.416V12.328L93.504 14.272L92.568 12.4L97.416 10ZM111.177 20.008V18.088H114.969L116.121 16.912V13.336L114.873 12.064H111.201L109.761 13.552V15.664H107.769V12.64L110.265 10H115.833L118.329 12.64V17.608L117.105 18.88L118.785 20.632V25.36L116.289 28H110.241L107.745 25.36V22.336H109.737V24.448L111.201 25.936H115.353L116.577 24.664V21.328L115.281 20.008H111.177ZM125.635 28L123.139 25.36V12.64L125.635 10H132.403L134.899 12.64V25.36L132.403 28H125.635ZM126.571 25.936H131.443L132.811 24.544V13.456L131.467 12.064H126.595L125.227 13.456V24.544L126.571 25.936ZM127.819 17.56H130.219V20.44H127.819V17.56Z" fill="#A6FAF8"/>
<path d="M93.416 60H95.624V76.08H99.224V78H89.816V76.08H93.416V62.328L89.504 64.272L88.568 62.4L93.416 60ZM109.049 76.08H110.969V73.512H102.569V71.592L109.577 60H113.177V71.592H114.689V73.512H113.177V76.08H114.857V78H109.049V76.08ZM104.993 71.592H110.969V61.704L104.993 71.592ZM121.635 78L119.139 75.36V62.64L121.635 60H128.403L130.899 62.64V75.36L128.403 78H121.635ZM122.571 75.936H127.443L128.811 74.544V63.456L127.467 62.064H122.595L121.227 63.456V74.544L122.571 75.936ZM123.819 67.56H126.219V70.44H123.819V67.56Z" fill="white"/>
<path d="M94.416 270H96.624V286.08H100.224V288H90.816V286.08H94.416V272.328L90.504 274.272L89.568 272.4L94.416 270ZM107.025 288L104.529 285.36V272.64L107.025 270H113.793L116.289 272.64V285.36L113.793 288H107.025ZM107.961 285.936H112.833L114.201 284.544V273.456L112.857 272.064H107.985L106.617 273.456V284.544L107.961 285.936ZM109.209 277.56H111.609V280.44H109.209V277.56ZM122.635 288L120.139 285.36V272.64L122.635 270H129.403L131.899 272.64V285.36L129.403 288H122.635ZM123.571 285.936H128.443L129.811 284.544V273.456L128.467 272.064H123.595L122.227 273.456V284.544L123.571 285.936ZM124.819 277.56H127.219V280.44H124.819V277.56Z" fill="white"/>
<path d="M94.416 200H96.624V216.08H100.224V218H90.816V216.08H94.416V202.328L90.504 204.272L89.568 202.4L94.416 200ZM115.689 218H104.649V216.08L113.121 206.648V203.336L111.873 202.064H108.201L106.761 203.552V205.664H104.769V202.64L107.265 200H112.833L115.329 202.64V207.344L107.337 216.08H113.769V213.296H115.689V218ZM122.635 218L120.139 215.36V202.64L122.635 200H129.403L131.899 202.64V215.36L129.403 218H122.635ZM123.571 215.936H128.443L129.811 214.544V203.456L128.467 202.064H123.595L122.227 203.456V214.544L123.571 215.936ZM124.819 207.56H127.219V210.44H124.819V207.56Z" fill="white"/>
<path d="M93.416 130H95.624V146.08H99.224V148H89.816V146.08H93.416V132.328L89.504 134.272L88.568 132.4L93.416 130ZM107.177 140.008V138.088H110.969L112.121 136.912V133.336L110.873 132.064H107.201L105.761 133.552V135.664H103.769V132.64L106.265 130H111.833L114.329 132.64V137.608L113.105 138.88L114.785 140.632V145.36L112.289 148H106.241L103.745 145.36V142.336H105.737V144.448L107.201 145.936H111.353L112.577 144.664V141.328L111.281 140.008H107.177ZM121.635 148L119.139 145.36V132.64L121.635 130H128.403L130.899 132.64V145.36L128.403 148H121.635ZM122.571 145.936H127.443L128.811 144.544V133.456L127.467 132.064H122.595L121.227 133.456V144.544L122.571 145.936ZM123.819 137.56H126.219V140.44H123.819V137.56Z" fill="white"/>
<g filter="url(#filter3_i_43_533)">
<path d="M173 179.932L152.452 185.387C150.699 185.852 149.478 187.439 149.478 189.253V205.394C149.478 207.604 147.687 209.394 145.478 209.394H84.4098C82.2006 209.394 80.4098 211.185 80.4098 213.394V219C80.4098 221.209 78.6189 223 76.4098 223H60C57.7909 223 56 221.209 56 219V143C56 140.791 57.7909 139 60 139H76.4098C78.6189 139 80.4098 140.791 80.4098 143V147.57C80.4098 149.78 82.2006 151.57 84.4097 151.57H145.478C147.687 151.57 149.478 153.361 149.478 155.57V170.151C149.478 171.934 150.658 173.502 152.372 173.995L173 179.932Z" fill="black" fill-opacity="0.2"/>
<path d="M173 179.932L152.452 185.387C150.699 185.852 149.478 187.439 149.478 189.253V205.394C149.478 207.604 147.687 209.394 145.478 209.394H84.4098C82.2006 209.394 80.4098 211.185 80.4098 213.394V219C80.4098 221.209 78.6189 223 76.4098 223H60C57.7909 223 56 221.209 56 219V143C56 140.791 57.7909 139 60 139H76.4098C78.6189 139 80.4098 140.791 80.4098 143V147.57C80.4098 149.78 82.2006 151.57 84.4097 151.57H145.478C147.687 151.57 149.478 153.361 149.478 155.57V170.151C149.478 171.934 150.658 173.502 152.372 173.995L173 179.932Z" stroke="white" stroke-width="4"/>
</g>
<path d="M53 49V314H25C16.5992 314 12.3988 314 9.19014 312.365C6.36771 310.927 4.073 308.632 2.6349 305.81C1 302.601 1 298.401 1 290V198.264L36.4043 182.467L1 167.637V73C1 64.5992 1 60.3988 2.6349 57.1902C4.073 54.3677 6.36771 52.073 9.19014 50.6349C12.3988 49 16.5992 49 25 49H53Z" fill="black" fill-opacity="0.2" stroke="white" stroke-width="2"/>
<path d="M146 69L167 69" stroke="white" stroke-width="3"/>
<path d="M146 139H167" stroke="white" stroke-width="3"/>
<path d="M146 104L159 104" stroke="white" stroke-width="3"/>
<path d="M146 209H167" stroke="white" stroke-width="3"/>
<path d="M146 174H159" stroke="white" stroke-width="3"/>
<path d="M146 244H159" stroke="white" stroke-width="3"/>
<path d="M146 314H159" stroke="white" stroke-width="3"/>
<path d="M146 279H167" stroke="white" stroke-width="3"/>
<path d="M40.2 102.4H41.8V100.26H34.8V98.66L40.64 89H43.64V98.66H44.9V100.26H43.64V102.4H45.04V104H40.2V102.4ZM36.82 98.66H41.8V90.42L36.82 98.66Z" fill="white"/>
<path d="M42.18 179H44.02V192.4H47.02V194H39.18V192.4H42.18V180.94L38.92 182.56L38.14 181L42.18 179Z" fill="white"/>
<path d="M40.68 224L38.6 221.8V211.2L40.68 209H46.32L48.4 211.2V221.8L46.32 224H40.68ZM41.46 222.28H45.52L46.66 221.12V211.88L45.54 210.72H41.48L40.34 211.88V221.12L41.46 222.28ZM42.5 215.3H44.5V217.7H42.5V215.3Z" fill="white"/>
<path d="M28 245.7H34.18V247.3H28V245.7ZM42.3558 239H44.1958V252.4H47.1958V254H39.3558V252.4H42.3558V240.94L39.0958 242.56L38.3158 241L42.3558 239Z" fill="white"/>
<path d="M29 305.7H35.18V307.3H29V305.7ZM41.8158 307.34V305.74H44.9758L45.9358 304.76V301.78L44.8958 300.72H41.8358L40.6358 301.96V303.72H38.9758V301.2L41.0558 299H45.6958L47.7758 301.2V305.34L46.7558 306.4L48.1558 307.86V311.8L46.0758 314H41.0358L38.9558 311.8V309.28H40.6158V311.04L41.8358 312.28H45.2958L46.3158 311.22V308.44L45.2358 307.34H41.8158Z" fill="white"/>
<path d="M29 275.7H35.18V277.3H29V275.7ZM48.0758 284H38.8758V282.4L45.9358 274.54V271.78L44.8958 270.72H41.8358L40.6358 271.96V273.72H38.9758V271.2L41.0558 269H45.6958L47.7758 271.2V275.12L41.1158 282.4H46.4758V280.08H48.0758V284Z" fill="white"/>
<path d="M46.9 164H37.7V162.4L44.76 154.54V151.78L43.72 150.72H40.66L39.46 151.96V153.72H37.8V151.2L39.88 149H44.52L46.6 151.2V155.12L39.94 162.4H45.3V160.08H46.9V164Z" fill="white"/>
<path d="M39.64 127.34V125.74H42.8L43.76 124.76V121.78L42.72 120.72H39.66L38.46 121.96V123.72H36.8V121.2L38.88 119H43.52L45.6 121.2V125.34L44.58 126.4L45.98 127.86V131.8L43.9 134H38.86L36.78 131.8V129.28H38.44V131.04L39.66 132.28H43.12L44.14 131.22V128.44L43.06 127.34H39.64Z" fill="white"/>
<path d="M43.18 62.92V60.6H37.98V64.94H43.16L45.18 67.06V71.8L43.1 74H38.06L35.98 71.8V69.28H37.64V71.04L38.86 72.28H42.32L43.34 71.22V67.64L42.26 66.54H36.38V59H44.78V62.92H43.18Z" fill="white"/>
<path d="M96.888 169H99.832V190.44H104.632V193H92.088V190.44H96.888V172.104L91.672 174.696L90.424 172.2L96.888 169ZM125.253 193H110.533V190.44L121.829 177.864V173.448L120.165 171.752H115.269L113.349 173.736V176.552H110.693V172.52L114.021 169H121.445L124.773 172.52V178.792L114.117 190.44H122.693V186.728H125.253V193ZM143.313 175.272V171.56H134.993V178.504H143.281L146.513 181.896V189.48L143.185 193H135.121L131.793 189.48V185.448H134.449V188.264L136.401 190.248H141.937L143.569 188.552V182.824L141.841 181.064H132.433V169H145.873V175.272H143.313Z" fill="white"/>
<path d="M167 35H152V5H167V14.9525L157.566 19.8289L167 25.076V35Z" fill="#4EFFFC" stroke="#FFCC66" stroke-width="2"/>
<defs>
<filter id="filter3_i_43_533" x="54" y="137" width="138.502" height="100" filterUnits="userSpaceOnUse" color-interpolation-filters="sRGB">
<feFlood flood-opacity="0" result="BackgroundImageFix"/>
<feBlend mode="normal" in="SourceGraphic" in2="BackgroundImageFix" result="shape"/>
<feColorMatrix in="SourceAlpha" type="matrix" values="0 0 0 0 0 0 0 0 0 0 0 0 0 0 0 0 0 0 127 0" result="hardAlpha"/>
<feOffset dx="12" dy="12"/>
<feGaussianBlur stdDeviation="7.5"/>
<feComposite in2="hardAlpha" operator="arithmetic" k2="-1" k3="1"/>
<feColorMatrix type="matrix" values="0 0 0 0 0 0 0 0 0 0 0 0 0 0 0 0 0 0 0.25 0"/>
<feBlend mode="normal" in2="shape" result="effect1_innerShadow_43_533"/>
</filter>
</defs>
</svg>
