<svg width="78" height="65" viewBox="0 0 78 65" fill="none" xmlns="http://www.w3.org/2000/svg">
<path d="M31.2 38.8776L6.5325 47.1967C4.9725 47.7458 3.4944 47.6228 2.0982 46.8277C0.702 46.0326 0.0026 44.92 0 43.4901V41.6781C0 41.0191 0.1794 40.3876 0.5382 39.7836C0.897 39.1796 1.4001 38.6854 2.0475 38.301L31.2 21.0861V6.58942C31.2 4.77733 31.9644 3.22662 33.4932 1.93729C35.022 0.647965 36.8576 0.00220206 39 5.58425e-06C41.1424 -0.00219089 42.9793 0.643572 44.5107 1.93729C46.0421 3.23102 46.8052 4.78172 46.8 6.58942V21.0861L75.9525 38.301C76.6025 38.6854 77.1069 39.1796 77.4657 39.7836C77.8245 40.3876 78.0026 41.0191 78 41.6781V43.4901C78 44.9179 77.3019 46.0304 75.9057 46.8277C74.5095 47.625 73.0301 47.748 71.4675 47.1967L46.8 38.8776V50.7385L56.8425 56.669C57.3625 56.9985 57.7694 57.3971 58.0632 57.865C58.357 58.3328 58.5026 58.8402 58.5 59.3871V61.3639C58.5 62.4622 57.9631 63.355 56.8893 64.0425C55.8155 64.73 54.6299 64.9079 53.3325 64.5763L39 60.9521L24.6675 64.5763C23.3675 64.9057 22.1806 64.7278 21.1068 64.0425C20.033 63.3572 19.4974 62.4644 19.5 61.3639V59.3871C19.5 58.838 19.6469 58.3306 19.9407 57.865C20.2345 57.3993 20.6401 57.0006 21.1575 56.669L31.2 50.7385V38.8776Z" fill="black"/>
</svg>
