<svg width="369" height="369" viewBox="0 0 369 369" fill="none" xmlns="http://www.w3.org/2000/svg">
<g opacity="0.6">
<ellipse opacity="0.1" cx="184.5" cy="184.495" rx="184.5" ry="184.495" fill="black"/>
<path d="M184.888 27.9656V0.388467M184.888 368.213V337.528" stroke="black" stroke-width="3"/>
<path d="M27.6653 184.106H0M369 184.106H338.217" stroke="black" stroke-width="3"/>
<path d="M314.621 53.6007L292.522 75.1802" stroke="black"/>
<path d="M69.5786 78.7434C69.5786 78.7434 57.4739 67.207 49.7178 59.815M314.621 315.389C305.991 307.164 292.522 293.638 292.522 293.638M66.8596 288.226C66.8596 288.226 54.755 300.046 46.9989 307.62M314.621 53.6005C305.991 62.0278 292.522 75.18 292.522 75.18" stroke="black" stroke-width="3"/>
</g>
<path d="M40.0898 124.699C40.0898 124.699 24.7441 118.057 14.9112 113.801M350.744 259.167C339.804 254.432 322.729 247.041 322.729 247.041M114.097 325.649C114.097 325.649 106.823 340.924 102.163 350.712M261.345 16.4244C256.159 27.3149 248.066 44.3112 248.066 44.3112" stroke="black" stroke-width="2"/>
<path d="M37.2344 238.504C37.2344 238.504 21.8796 245.27 12.041 249.606M353.419 112.636C342.472 117.46 325.387 124.989 325.387 124.989M240.594 331.298C240.594 331.298 246.836 346.974 250.836 357.019M114.225 13.9542C118.676 25.1306 125.621 42.5731 125.621 42.5731" stroke="black" stroke-width="2"/>
<g opacity="0.16">
<ellipse opacity="0.1" cx="183.723" cy="183.718" rx="145.658" ry="145.654" fill="black"/>
</g>
<path d="M201.914 211.708L230.43 246.563L225.619 250.591L197.103 215.737L201.914 211.708Z" fill="#C06AF5"/>
<path d="M201.914 211.708C204.19 214.491 221.873 236.104 230.43 246.563M201.914 211.708L197.103 215.737L225.619 250.591L230.43 246.563M201.914 211.708L230.43 246.563" stroke="#FFCC66"/>
<path d="M77.6841 34.5682L85.4526 43.89" stroke="black"/>
<path d="M150.319 3.49547L153.426 16.7014" stroke="black"/>
<path d="M225.673 5.43756L222.565 17.0899" stroke="black"/>
<path d="M290.15 34.5682L283.159 43.89" stroke="black"/>
<path d="M70.6926 329.371L77.6841 320.049" stroke="black"/>
<path d="M334.027 79.2356L325.162 87.5213" stroke="black"/>
<path d="M362.969 145.411L349.96 149.264" stroke="black"/>
<path d="M285.713 338.485L278.9 328.986" stroke="black"/>
<path d="M141.514 363.407L144.77 352.181" stroke="black"/>
<path d="M220.362 365.451L218.402 353.928" stroke="black"/>
<path d="M365.45 217.728L353.639 215.289" stroke="black"/>
<path d="M337.196 288.631L327.491 282.181" stroke="black"/>
<path d="M29.397 83.6901L39.206 90.8337" stroke="black"/>
<path d="M4.83763 149.149L17.8459 153.002" stroke="black"/>
<path d="M4.66093 220.612L16.4714 218.172" stroke="black"/>
<path d="M29.52 281.974L39.2245 275.524" stroke="black"/>
<path d="M175.566 188.646L150.999 196.932C149.445 197.479 147.973 197.356 146.582 196.564C145.192 195.772 144.495 194.664 144.493 193.24V191.435C144.493 190.779 144.671 190.15 145.029 189.549C145.386 188.947 145.887 188.455 146.532 188.072L175.566 170.927V156.489C175.566 154.684 176.328 153.14 177.85 151.856C179.373 150.571 181.201 149.928 183.335 149.926C185.468 149.924 187.298 150.567 188.823 151.856C190.348 153.144 191.108 154.688 191.103 156.489V170.927L220.137 188.072C220.785 188.455 221.287 188.947 221.645 189.549C222.002 190.15 222.179 190.779 222.177 191.435V193.24C222.177 194.662 221.481 195.77 220.091 196.564C218.7 197.358 217.227 197.481 215.671 196.932L191.103 188.646V200.459L201.105 206.366C201.623 206.694 202.028 207.091 202.321 207.557C202.613 208.023 202.758 208.528 202.756 209.073V211.042C202.756 212.135 202.221 213.025 201.151 213.709C200.082 214.394 198.901 214.571 197.609 214.241L183.335 210.631L169.06 214.241C167.765 214.569 166.583 214.392 165.514 213.709C164.444 213.027 163.911 212.138 163.914 211.042V209.073C163.914 208.526 164.06 208.02 164.352 207.557C164.645 207.093 165.049 206.696 165.564 206.366L175.566 200.459V188.646Z" fill="black"/>
<path d="M174.76 149.471L158.272 153.232L158.748 153.848L171.729 170.647L166.701 174.683L153.632 157.734L153.089 157.029L152.767 157.849L146.807 173.036L136.695 130.958L174.76 149.471ZM147.671 159.763L148.254 158.286L151.277 150.62L162.637 148.029L161.363 147.408L143.442 138.672L142.491 138.208L147.671 159.763Z" fill="#C06AF5" stroke="#FFCC66"/>
<path d="M131.909 60.1578L131.428 58.2962L135.105 57.3475L135.928 55.9191L135.033 52.4518L133.505 51.5307L129.944 52.4493L128.921 54.2523L129.449 56.3001L127.517 56.7984L126.761 53.8663L128.521 50.6822L133.919 49.2892L137 51.2246L138.243 56.0416L137.374 57.5811L139.442 58.8596L140.624 63.4439L138.865 66.628L133 68.141L129.92 66.2057L129.163 63.2736L131.095 62.7753L131.623 64.8231L133.415 65.8996L137.441 64.8609L138.309 63.3214L137.475 60.0868L135.888 59.1311L131.909 60.1578Z" fill="black"/>
<path d="M317.348 126.517L318.253 128.534L303.563 135.128L305.04 138.416L303.286 139.204L299.428 130.609L301.182 129.822L302.658 133.111L315.221 127.471L311.841 124.695L313.167 123.072L317.348 126.517ZM309.628 153.332L305.101 143.247L306.855 142.459L318.945 146.331L321.971 144.973L322.621 143.311L321.115 139.957L319.166 139.251L317.236 140.117L316.419 138.298L319.182 137.058L322.617 138.255L324.901 143.342L323.512 146.704L319.215 148.633L307.957 144.915L310.595 150.791L313.138 149.649L313.925 151.403L309.628 153.332Z" fill="black"/>
<path d="M317.136 239.699L315.984 241.586L302.242 233.193L300.363 236.27L298.722 235.268L303.633 227.228L305.273 228.23L303.394 231.307L315.147 238.484L315.527 234.126L317.616 234.303L317.136 239.699ZM303.09 253.66L305.469 255.113L308.726 249.78L304.276 247.062L301.031 252.374L297.592 253.118L292.731 250.149L291.778 246.638L294.934 241.47L298.493 240.715L301.078 242.293L300.038 243.995L298.233 242.893L296.197 243.368L294.03 246.916L294.478 248.626L298.15 250.868L299.954 250.449L303.637 244.419L311.369 249.141L306.108 257.756L302.088 255.301L303.09 253.66Z" fill="black"/>
<path d="M52.0136 146.433L50.2038 145.784L51.485 142.209L50.7658 140.726L47.3949 139.518L45.7742 140.264L44.5334 143.726L45.4495 145.586L47.4404 146.3L46.7673 148.177L43.9167 147.156L42.2716 143.911L44.1529 138.662L47.4849 137.201L52.1679 138.88L52.9533 140.463L55.1725 139.472L59.6293 141.069L61.2745 144.314L59.2309 150.015L55.899 151.476L53.0484 150.454L53.7215 148.576L55.7124 149.29L57.6097 148.413L59.0126 144.499L58.2272 142.915L55.0825 141.788L53.4003 142.564L52.0136 146.433ZM57.2879 131.719L55.478 131.07L56.7593 127.495L56.04 126.012L52.6692 124.804L51.0484 125.551L49.8077 129.012L50.7238 130.872L52.7146 131.586L52.0415 133.463L49.191 132.442L47.5458 129.197L49.4272 123.948L52.7591 122.488L57.4422 124.166L58.2276 125.75L60.4468 124.758L64.9036 126.355L66.5487 129.6L64.5052 135.301L61.1732 136.762L58.3227 135.74L58.9958 133.863L60.9866 134.576L62.884 133.699L64.2869 129.785L63.5014 128.202L60.3568 127.074L58.6746 127.85L57.2879 131.719Z" fill="black"/>
<path d="M54.4654 236.868L52.6536 237.511L51.3829 233.933L49.8871 233.24L46.5127 234.438L45.7306 236.042L46.9611 239.507L48.8478 240.367L50.8408 239.66L51.5083 241.539L48.6548 242.553L45.3271 241.082L43.4612 235.828L45.116 232.588L49.8039 230.923L51.4144 231.652L52.5047 229.48L56.9661 227.895L60.2937 229.366L62.3205 235.073L60.6658 238.313L57.8122 239.326L57.1447 237.446L59.1376 236.739L60.0511 234.859L58.6598 230.941L57.0493 230.212L53.9013 231.33L53.0901 232.995L54.4654 236.868ZM57.162 220.547L55.5073 223.787L43.5043 228.05L40.1767 226.579L37.9087 220.193L39.5634 216.953L51.5664 212.69L54.894 214.161L57.162 220.547ZM54.9007 220.356L53.268 215.758L51.4961 214.934L41.0331 218.65L40.17 220.384L41.8026 224.982L43.5746 225.806L54.0376 222.09L54.9007 220.356ZM46.5787 221.985L45.7744 219.72L48.492 218.755L49.2963 221.02L46.5787 221.985Z" fill="black"/>
<path d="M135.233 298.581L145.398 302.926L144.643 304.694L133.13 310.045L131.826 313.094L132.475 314.757L135.856 316.202L137.767 315.398L138.599 313.453L140.433 314.237L139.243 317.022L135.905 318.47L130.779 316.279L129.519 312.866L131.371 308.535L142.168 303.636L136.245 301.105L135.149 303.668L133.382 302.913L135.233 298.581ZM125.298 296.426L123.53 295.67L122.519 298.035L130.254 301.34L129.498 303.108L118.483 311.024L115.168 309.607L119.73 298.934L118.338 298.339L119.094 296.571L120.486 297.166L121.497 294.801L119.95 294.14L120.705 292.372L126.053 294.658L125.298 296.426ZM127.266 302.154L121.763 299.803L117.872 308.907L127.266 302.154Z" fill="black"/>
<path d="M222.094 300.119L232.079 295.375L232.904 297.112L229.295 309.283L230.718 312.279L232.394 312.893L235.715 311.315L236.378 309.35L235.47 307.44L237.272 306.584L238.571 309.319L237.448 312.779L232.412 315.172L229.02 313.857L226.999 309.602L230.473 298.267L224.655 301.031L225.852 303.549L224.115 304.374L222.094 300.119ZM220.834 320.673L218.837 321.622L211.927 307.079L208.67 308.626L207.845 306.889L216.354 302.846L217.18 304.583L213.924 306.13L219.834 318.568L222.536 315.128L224.188 316.419L220.834 320.673Z" fill="black"/>
<path d="M247.291 68.4936L244.109 70.2571L238.337 68.4249L236.754 65.1491L240.608 53.0087L243.79 51.2452L249.104 52.9319L250.687 56.2078L249.771 59.094L247.869 58.4905L248.509 56.4748L247.586 54.6183L244.081 53.5059L242.354 54.4201L241.096 58.3829L247.326 60.3605L248.869 63.5229L247.291 68.4936ZM245.714 61.8658L240.514 60.2154L238.994 65.0028L239.878 66.7458L243.841 68.0036L245.395 67.1604L246.551 63.5183L245.714 61.8658Z" fill="black"/>
<path d="M84.0618 110.65C84.3708 110.325 84.6615 110.004 84.9338 109.687C85.2058 109.355 85.4304 109.051 85.6079 108.773C85.7853 108.496 85.8971 108.249 85.9433 108.034C85.9966 107.811 85.9553 107.635 85.8192 107.506L73.9931 96.2609L70.8639 95.9195L69.5812 97.2691L68.6968 96.4281L78.1176 86.516L94.6522 88.3557L86.6018 80.7008C86.4658 80.5714 86.3095 80.5163 86.1329 80.5356C85.956 80.54 85.7586 80.6114 85.5408 80.7498C85.3154 80.8809 85.073 81.0678 84.8135 81.3105C84.5465 81.546 84.2585 81.8263 83.9495 82.1514L83.0651 81.3105L87.948 76.173L88.8324 77.0139C88.2144 77.6642 87.7709 78.214 87.502 78.6636C87.233 79.1131 87.2384 79.4709 87.5181 79.7368L102.031 93.5372L96.5665 99.2871L76.1792 96.5044L86.6788 106.488C86.8299 106.632 87.0084 106.686 87.2141 106.652C87.4269 106.609 87.6604 106.508 87.9145 106.346C88.1683 106.17 88.4466 105.945 88.7496 105.672C89.0449 105.392 89.3507 105.085 89.6669 104.752L90.5626 105.604L84.9576 111.501L84.0618 110.65Z" fill="#5EE0FF"/>
<path d="M48.903 58.6797L65.1667 60.1212L47.7654 74.9671L48.903 58.6797Z" fill="#5EE0FF"/>
<path d="M262.777 87.6663L264.614 89.6972L279.236 76.4749L277.4 74.444L278.305 73.6255L294.561 91.6018L288.909 96.7123L288.195 95.9231L290.024 88.4049L286.477 84.4824L279.572 90.7263L281.157 92.4786L286.372 90.5475L287.054 91.3019L278.466 99.0673L277.784 98.313L280.252 93.2971L278.667 91.5448L271.855 97.7047L275.769 102.033L284.093 100.624L284.817 101.425L278.619 107.029L261.86 88.4953L262.777 87.6663Z" fill="black"/>
<path d="M66.7078 268.892L65.0655 267.419L64.2506 268.327L76.0268 278.889L76.8417 277.98L74.745 276.1L86.5379 269.442L83.0199 276.88L78.3792 279.359L77.6104 278.67L76.7956 279.578L87.6982 289.356L88.513 288.448L86.4164 286.567L98.1337 279.947L92.8182 291.006C92.7789 291.096 92.7348 291.169 92.686 291.223C92.5955 291.324 92.468 291.357 92.3036 291.322C92.14 291.301 91.9437 291.223 91.7147 291.088C91.4865 290.967 91.2335 290.796 90.9555 290.575C90.6784 290.368 90.3845 290.126 90.0739 289.847L89.259 290.756L94.8035 295.728L95.6184 294.82C94.9273 294.2 94.4635 293.686 94.2271 293.278C93.9915 292.884 93.9528 292.513 94.1112 292.165L103.049 273.342L98.04 268.85L85.3031 275.67L91.3773 262.875L86.3803 258.393L66.7078 268.892Z" fill="black"/>
<path d="M280.177 270.804L279.44 271.55C278.893 271.377 278.273 271.218 277.578 271.075C276.892 270.939 276.157 270.851 275.375 270.812C274.593 270.772 273.774 270.799 272.919 270.893C272.072 270.994 271.214 271.195 270.345 271.495C269.477 271.795 268.605 272.21 267.731 272.739C266.864 273.275 266.016 273.963 265.187 274.801C264.946 275.046 264.685 275.332 264.407 275.658C264.136 275.992 263.91 276.332 263.727 276.68C263.553 277.035 263.455 277.379 263.435 277.711C263.415 278.058 263.539 278.363 263.806 278.627C264.088 278.905 264.454 279.032 264.903 279.007C265.353 278.997 265.913 278.854 266.582 278.577C267.259 278.307 268.061 277.911 268.987 277.389C269.906 276.875 270.979 276.256 272.206 275.533C274.926 273.909 277.31 273.068 279.36 273.011C281.411 272.969 283.167 273.67 284.629 275.114C285.541 276.016 286.171 277.004 286.517 278.079C286.855 279.161 286.947 280.263 286.791 281.385C286.636 282.522 286.256 283.649 285.65 284.766C285.045 285.899 284.255 286.958 283.28 287.945C282.781 288.45 282.216 288.933 281.585 289.394C280.946 289.862 280.288 290.283 279.612 290.656C278.936 291.029 278.255 291.339 277.571 291.587C276.894 291.842 276.253 292.015 275.649 292.107L275.614 295.394L274.855 296.162L270.013 291.378L270.706 290.677C271.615 290.93 272.574 291.049 273.585 291.036C274.595 291.022 275.612 290.869 276.635 290.575C277.659 290.281 278.674 289.839 279.681 289.251C280.688 288.662 281.635 287.918 282.522 287.02C282.69 286.85 282.899 286.624 283.148 286.342C283.405 286.067 283.628 285.767 283.818 285.441C284 285.123 284.109 284.798 284.144 284.466C284.186 284.141 284.077 283.85 283.817 283.594C283.395 283.176 282.609 283.155 281.46 283.531C280.312 283.921 278.786 284.679 276.883 285.805C276.074 286.282 275.277 286.725 274.49 287.136C273.711 287.554 272.942 287.901 272.184 288.179C271.426 288.471 270.682 288.675 269.953 288.79C269.224 288.92 268.501 288.932 267.785 288.825C267.068 288.719 266.363 288.484 265.667 288.119C264.964 287.762 264.264 287.239 263.566 286.55C262.758 285.751 262.14 284.847 261.713 283.84C261.287 282.832 261.096 281.763 261.14 280.635C261.178 279.513 261.47 278.357 262.015 277.166C262.569 275.983 263.414 274.816 264.55 273.666C265.173 273.035 265.808 272.489 266.454 272.028C267.1 271.567 267.78 271.168 268.493 270.832C269.2 270.503 269.95 270.225 270.745 269.999C271.548 269.78 272.414 269.594 273.342 269.441L273.085 265.449L273.91 264.614L280.177 270.804Z" fill="black"/>
</svg>
