<svg width="127" height="88" viewBox="0 0 127 88" fill="none" xmlns="http://www.w3.org/2000/svg">
<g filter="url(#filter0_i_42_437)">
<path d="M119 42.9322L98.452 48.3867C96.6988 48.8521 95.4783 50.4389 95.4783 52.2528V68.3944C95.4783 70.6035 93.6874 72.3944 91.4783 72.3944H30.4098C28.2006 72.3944 26.4098 74.1852 26.4098 76.3944V82C26.4098 84.2091 24.6189 86 22.4098 86H6C3.79086 86 2 84.2091 2 82V6C2 3.79086 3.79086 2 6 2H22.4098C24.6189 2 26.4098 3.79086 26.4098 6V10.5704C26.4098 12.7796 28.2006 14.5704 30.4097 14.5704H91.4783C93.6874 14.5704 95.4783 16.3613 95.4783 18.5704V33.1509C95.4783 34.9339 96.6584 36.5017 98.3719 36.9948L119 42.9322Z" fill="black" fill-opacity="0.2"/>
<path d="M119 42.9322L98.452 48.3867C96.6988 48.8521 95.4783 50.4389 95.4783 52.2528V68.3944C95.4783 70.6035 93.6874 72.3944 91.4783 72.3944H30.4098C28.2006 72.3944 26.4098 74.1852 26.4098 76.3944V82C26.4098 84.2091 24.6189 86 22.4098 86H6C3.79086 86 2 84.2091 2 82V6C2 3.79086 3.79086 2 6 2H22.4098C24.6189 2 26.4098 3.79086 26.4098 6V10.5704C26.4098 12.7796 28.2006 14.5704 30.4097 14.5704H91.4783C93.6874 14.5704 95.4783 16.3613 95.4783 18.5704V33.1509C95.4783 34.9339 96.6584 36.5017 98.3719 36.9948L119 42.9322Z" stroke="white" stroke-width="4"/>
</g>
<defs>
<filter id="filter0_i_42_437" x="0" y="0" width="138.502" height="100" filterUnits="userSpaceOnUse" color-interpolation-filters="sRGB">
<feFlood flood-opacity="0" result="BackgroundImageFix"/>
<feBlend mode="normal" in="SourceGraphic" in2="BackgroundImageFix" result="shape"/>
<feColorMatrix in="SourceAlpha" type="matrix" values="0 0 0 0 0 0 0 0 0 0 0 0 0 0 0 0 0 0 127 0" result="hardAlpha"/>
<feOffset dx="12" dy="12"/>
<feGaussianBlur stdDeviation="7.5"/>
<feComposite in2="hardAlpha" operator="arithmetic" k2="-1" k3="1"/>
<feColorMatrix type="matrix" values="0 0 0 0 0 0 0 0 0 0 0 0 0 0 0 0 0 0 0.25 0"/>
<feBlend mode="normal" in2="shape" result="effect1_innerShadow_42_437"/>
</filter>
</defs>
</svg>
